PathFileType	4	(X/Y/Z)	s08c0401.trc
DataRate	CameraRate	NumFrames	NumMarkers	Units	OrigDataRate	OrigDataStartFrame	OrigNumFrames
200	200	4	50	mm	200	1750	2000
Frame#	Time	racr			lacr			c7			jug			rlel			rdr			llel			ldr			s2			lic			ric			lasi			rasi			rpsi			lpsi			rgt			lgt			rth1			rth2			rth3			rth4			rlfc			rmfc			rsh1			rsh2			rsh3			rsh4			rlmal			rmmal			rcal			rtoe			rmt5			lth1			lth2			lth4			lth3			llfc			lmfc			llmal			lmmal			lcal			lmt5			lsh1			lsh2			lsh3			lsh4			ltoe			SBIKE			LBIKE			RBIKE			
		X1	Y1	Z1	X2	Y2	Z2	X3	Y3	Z3	X4	Y4	Z4	X5	Y5	Z5	X6	Y6	Z6	X7	Y7	Z7	X8	Y8	Z8	X9	Y9	Z9	X10	Y10	Z10	X11	Y11	Z11	X12	Y12	Z12	X13	Y13	Z13	X14	Y14	Z14	X15	Y15	Z15	X16	Y16	Z16	X17	Y17	Z17	X18	Y18	Z18	X19	Y19	Z19	X20	Y20	Z20	X21	Y21	Z21	X22	Y22	Z22	X23	Y23	Z23	X24	Y24	Z24	X25	Y25	Z25	X26	Y26	Z26	X27	Y27	Z27	X28	Y28	Z28	X29	Y29	Z29	X30	Y30	Z30	X31	Y31	Z31	X32	Y32	Z32	X33	Y33	Z33	X34	Y34	Z34	X35	Y35	Z35	X36	Y36	Z36	X37	Y37	Z37	X38	Y38	Z38	X39	Y39	Z39	X40	Y40	Z40	X41	Y41	Z41	X42	Y42	Z42	X43	Y43	Z43	X44	Y44	Z44	X45	Y45	Z45	X46	Y46	Z46	X47	Y47	Z47	X48	Y48	Z48	X49	Y49	Z49	X50	Y50	Z50	
1750	8.7500	553.463430	1410.998468	-116.610726	515.571429	1398.968613	-451.747732	515.901116	1467.796588	-279.877631	487.275853	1310.330405	-267.718995	603.673997	1170.985894	10.403405	772.389572	927.948087	-64.749234	592.709687	1147.614487	-521.142908	776.207589	925.807422	-440.793307	-44.268991	1223.777704	-228.623829	113.317456	1215.880789	-382.554568	137.529690	1219.173914	-73.740957	134.322526	1172.771647	-340.765619	147.681267	1151.927353	-102.386290	-4.013783	1258.364076	-173.638418	-9.484978	1266.595020	-268.463241	37.117795	1104.342692	-37.698589	64.002141	1134.460810	-423.029884	132.741236	953.375311	-27.182040	197.151991	891.946334	-28.961552	221.804110	809.074791	-41.868827	228.005654	911.370397	-38.498054	277.813594	707.644551	-59.631929	259.660964	699.215566	-168.724095	195.524266	605.052505	-28.095960	180.590961	517.832745	-47.193481	125.414994	452.219193	-54.242112	208.774636	510.178262	-75.679107	66.648674	349.785057	-62.199350	54.284680	410.255551	-155.916627	-10.236679	355.059060	-111.546195	250.036312	211.307990	-105.099644	156.622107	224.021518	-39.928266	168.638775	1063.199047	-425.037338	255.473021	1046.114184	-428.548193	270.750512	1074.392023	-411.039493	319.441953	984.731116	-432.561485	419.726926	896.639402	-411.815033	430.117369	870.981709	-302.185200	315.240466	490.251951	-407.301936	342.145865	510.273658	-322.308428	244.111646	464.773631	-369.137991	451.604672	404.731871	-425.669648	395.841012	773.192956	-433.882822	392.288389	688.700188	-416.024626	349.366602	611.856056	-417.334520	414.899881	686.152746	-383.459303	532.095721	433.682730	-354.998592	-139.789933	942.590285	-228.922939	17.937838	80.240155	-428.056610	17.730425	79.984645	-29.461265	
1751	8.7550	552.637765	1410.785880	-115.852489	514.428509	1398.473794	-448.731905	515.196697	1467.526866	-279.559934	486.720308	1310.022362	-267.145677	603.088364	1170.657166	10.554694	772.342933	927.967162	-65.290472	592.728912	1147.766359	-520.527615	775.998915	925.575061	-440.364938	-44.687243	1223.239323	-229.867592	113.383901	1214.981767	-383.154217	136.252791	1219.662410	-73.986890	134.405864	1171.815844	-341.448114	149.780980	1153.621389	-100.133651	-5.054472	1258.371280	-174.657273	-10.090901	1265.997560	-269.614136	36.874798	1105.044681	-37.702099	63.646976	1131.883329	-422.598274	135.897468	956.157434	-27.736137	201.460409	895.991491	-29.570311	227.530971	813.482601	-41.778793	231.825816	915.952810	-39.376571	284.167185	712.322390	-59.071967	266.395157	703.893467	-168.523036	199.328102	611.480059	-27.864153	182.483703	524.723942	-47.000291	125.697957	460.492722	-54.166846	210.503249	516.345261	-75.400490	64.383060	359.861711	-62.150742	52.891238	416.461344	-155.970379	-12.542654	366.549150	-111.525211	245.362049	218.478742	-105.093210	152.156881	232.821964	-39.896444	167.609468	1058.511846	-424.870029	254.119137	1039.864298	-428.363676	269.900519	1067.937676	-410.981781	316.861591	977.027542	-431.336158	415.803047	888.104327	-410.730428	426.869266	863.359299	-299.415149	318.878063	479.610471	-407.186167	345.377862	499.974432	-322.056690	247.992375	453.562362	-369.233171	456.183721	395.601791	-425.624636	393.567991	764.089548	-433.073647	391.904908	679.430741	-415.518695	350.486900	601.764058	-417.179955	414.498400	677.463305	-382.925472	536.449595	425.403638	-355.120981	-139.789680	942.570182	-228.913498	17.928374	80.211613	-428.062431	17.739812	79.988607	-29.474098	
1752	8.7600	551.804897	1410.603488	-114.939561	513.997085	1398.823603	-448.134047	514.520194	1467.291431	-279.150993	486.189998	1309.702106	-266.596002	602.386335	1170.268823	10.701601	772.234256	927.950000	-65.332044	592.716613	1147.928169	-519.884388	776.110125	925.294991	-440.102394	-44.989596	1222.425358	-231.349796	113.399162	1213.848824	-383.618276	134.982046	1220.030665	-74.395100	134.539970	1170.778464	-342.145400	145.872093	1153.519059	-103.043403	-6.101113	1258.352012	-175.709196	-10.588646	1265.111872	-270.790046	36.749711	1105.570139	-37.753631	63.243008	1128.901166	-422.133752	138.960447	958.946513	-28.336680	205.701569	900.121761	-29.944644	233.365476	818.030540	-41.631501	235.648536	920.542502	-40.224724	290.627515	717.291711	-58.433086	273.007142	708.953786	-168.069895	203.537180	618.153609	-27.618412	184.381076	532.010595	-47.987341	126.423972	469.039695	-54.073557	212.497665	523.081253	-75.820369	62.719692	370.225413	-62.064462	52.281058	422.799016	-155.970855	-14.122661	378.301977	-111.488629	241.260210	226.029184	-105.105187	148.286849	241.790928	-39.987560	166.474477	1053.411756	-424.788226	252.614345	1033.161811	-428.013722	269.088109	1061.069188	-411.695632	314.201409	969.036263	-430.387305	411.711648	879.226194	-409.458575	421.673529	853.323872	-300.957724	321.932164	468.925778	-407.137066	348.825711	489.435205	-322.283652	251.447037	442.302331	-369.243878	460.190357	386.282354	-425.625598	391.048346	754.673427	-432.278859	391.435979	669.998001	-415.188751	351.433545	591.446377	-416.831894	413.813459	668.340230	-382.221744	540.251833	416.730689	-355.182338	-139.809816	942.546136	-228.890158	17.749977	79.861215	-427.770327	17.721197	79.986912	-29.437286	
1753	8.7650	550.745857	1410.416602	-114.093852	513.592163	1399.244967	-447.580386	513.817170	1467.068376	-278.690880	485.527457	1309.326381	-266.120625	601.725264	1169.911080	10.821677	772.184166	928.218472	-65.096646	592.676033	1148.073448	-519.095580	775.531729	925.248609	-439.285685	-45.737154	1221.690970	-232.069004	130.105553	1219.033495	-402.112499	133.790761	1220.242107	-74.787285	134.647500	1169.417909	-342.662651	145.156852	1154.299486	-103.341453	-3.934430	1257.938503	-177.694604	-11.148323	1264.054079	-271.860433	36.656110	1105.906938	-37.845611	62.774636	1125.558458	-421.617990	142.049170	961.746816	-28.833599	209.938029	904.271788	-30.471262	239.117379	822.690750	-41.371680	239.450376	925.244805	-41.066908	297.120915	722.387934	-57.769996	278.998961	714.331270	-167.712692	207.934574	625.193562	-27.441232	187.144157	539.409338	-46.927781	127.743329	477.721147	-53.854070	215.023648	529.829489	-75.379777	61.774654	380.748825	-61.985855	52.490111	429.259508	-155.914683	-15.158525	390.331567	-111.539008	237.630234	233.493806	-105.243438	145.007761	250.964485	-39.978572	165.325072	1047.904532	-424.651340	250.980239	1025.906965	-427.755492	267.991060	1053.648658	-411.845933	311.449728	960.583067	-429.409785	407.220263	870.232280	-408.203891	417.010525	843.861764	-300.171428	324.248372	458.311343	-407.176967	350.925625	478.773239	-322.316307	254.808345	430.978463	-369.117924	463.679494	376.706392	-425.591226	388.250711	744.946046	-431.528558	390.431220	660.299128	-414.710103	351.962917	580.971534	-416.477769	412.662003	659.084842	-381.806555	543.453565	407.765232	-355.202860	-139.843691	942.527332	-228.844380	17.732714	80.006100	-427.868506	17.724817	79.979182	-29.462733	
